<svg xmlns="http://www.w3.org/2000/svg" viewBox="0 0 625.1 97.27"><defs><style>.cls-1{fill:#fb3640;}</style></defs><title>Asset 2</title><g id="Layer_2" data-name="Layer 2"><g id="Layer_1-2" data-name="Layer 1"><path class="cls-1" d="M81.4,117.07l5.75-38.93C88.71,68,90.78,55,93.45,41.35h-.38C87.78,53.59,81.94,66.54,76.8,76.92L57.53,115.53H41.82L38.47,77.32c-.82-10.35-1.58-23.39-2.06-36h-.29C33.4,53.86,30.6,68,28.21,78.15l-9.29,38.92H.4L24.07,22.8H51l3,35.86c.52,8.82,1.56,19.5,1.59,30h.54c3.77-10.48,8.75-21.53,12.78-30L86.43,22.8h27.29L101,117.07Z" transform="translate(-0.4 -21.34)"/><path class="cls-1" d="M161.59,117.07c.16-4,.53-8.68.89-13.55h-.33c-6.28,11.37-15.06,15.09-23,15.09-12.26,0-20.71-9.54-20.71-23.83,0-23.06,15.34-47.71,49-47.71A80.21,80.21,0,0,1,190,50.51l-7.21,35.78a169,169,0,0,0-2.75,30.78ZM167.43,63a25.53,25.53,0,0,0-5.51-.58c-13,0-22.5,15.95-22.52,28.67,0,6.72,2.72,11.34,8.27,11.34,6,0,13.47-6.86,16.59-23.62Z" transform="translate(-0.4 -21.34)"/><path class="cls-1" d="M194.94,117.07l7.72-40.74c1.92-10.3,2.79-21.82,3.5-27.72h17.43c-.36,4.62-.72,9.25-1.25,14h.44c4.83-9.09,12.43-15.57,21.81-15.57,1.27,0,2.58,0,3.76.15l-3.93,19.64c-.88-.07-2-.12-3.17-.12-12.82,0-18.87,11.43-21.39,24.89l-4.78,25.44Z" transform="translate(-0.4 -21.34)"/><path class="cls-1" d="M244.62,104.94l22.26-23.89A197.19,197.19,0,0,1,283.63,65.3l.14-.33H254.49l3.21-16.36h53.4l-2.35,12.73L287,84.63a175.74,175.74,0,0,1-16.59,15.76l-.09.32h32.08l-3.21,16.36H242.46Z" transform="translate(-0.4 -21.34)"/><path class="cls-1" d="M315.7,95.25a44.3,44.3,0,0,0,22.26,6c7.79.06,14.92-3.62,14.92-11,0-5.39-4.12-8.79-12.73-13.38-10-5.33-19.53-12.73-19.53-25,0-19.05,16.63-30.58,37.11-30.58,11.5,0,18.25,2.46,22.33,4.62l-6.36,16.8a37.35,37.35,0,0,0-17.54-4.12c-9.42,0-14.35,4.68-14.36,9.83,0,5.48,5.79,8.9,13.77,13.38,11.47,6,18.69,13.62,18.69,24.92,0,21-17.39,31.77-38.37,31.77-13.09,0-22.52-3.49-26.95-6.74Z" transform="translate(-0.4 -21.34)"/><path class="cls-1" d="M420.8,29.48l-3.56,19.13h14.59l-3,15.36H414.22l-4.59,23.21a49.3,49.3,0,0,0-1.14,8.68c0,3.35,1.46,5.74,5.84,5.74a42.41,42.41,0,0,0,5.53-.28l-2.31,15.76c-2.63,1-7.57,1.52-11.89,1.52-12.11,0-17.82-6.17-17.82-14.73a61.76,61.76,0,0,1,1.45-12.69L394.58,64h-8.75l2.89-15.36h8.79l2.72-14.39Z" transform="translate(-0.4 -21.34)"/><path class="cls-1" d="M502.3,75.29c0,24.95-17.17,43.32-40.86,43.32-17.41,0-29-11.26-29-28.3,0-23.67,16.57-43.24,40.86-43.24C491.66,47.07,502.3,59.66,502.3,75.29ZM453.25,89.9c0,8,4,13.34,11,13.34,10.93,0,17.19-16.15,17.19-27.79,0-6.36-2.77-13-10.77-13C459.07,62.44,453.22,79.31,453.25,89.9Z" transform="translate(-0.4 -21.34)"/><path class="cls-1" d="M508.24,117.07,516,76.33c1.92-10.3,2.79-21.82,3.5-27.72H536.9c-.37,4.62-.73,9.25-1.26,14h.44c4.83-9.09,12.43-15.57,21.81-15.57,1.27,0,2.58,0,3.76.15l-3.93,19.64c-.88-.07-2-.12-3.17-.12-12.82,0-18.86,11.43-21.39,24.89l-4.78,25.44Z" transform="translate(-0.4 -21.34)"/><path class="cls-1" d="M617,113.14c-8,4-17.94,5.4-25.57,5.4-19.55,0-29.58-11.07-29.58-28.94,0-20.79,15.11-42.53,39.82-42.53,13.89,0,23.81,7.81,23.83,20.55,0,17.37-17,23.74-44.37,23a14.2,14.2,0,0,0,2.17,7c2.65,3.45,7.2,5.23,13.09,5.23a43.15,43.15,0,0,0,19.19-4.33ZM599.2,61.83c-9.34,0-14.77,7.75-16.11,14.07,15.63.16,23.51-2,23.51-8.27C606.6,64.22,603.76,61.83,599.2,61.83Z" transform="translate(-0.4 -21.34)"/></g></g></svg>